<svg id="Слой_1" xmlns="http://www.w3.org/2000/svg" viewBox="0 0 41.6 41.2"><style>.st0{fill:#ff3366}</style><path class="st0" d="M9.8 33V16.5l-3.2-1.8v17.8c0 1.2-.3 2.6 1.6 3.5l8.6 3.4s-4.8-3.5-6.2-4.6c-.5-.3-.8-.8-.8-1.8z"/><path class="st0" d="M3.3 35.6V18.1L0 16.4v18.8c0 1.2-.4 3.2 1.8 3.6.5.1 14.9 2.2 14.9 2.2S6.2 38 5.4 37.8c-1.7-.4-2.1-1-2.1-2.2zM35 32.7V14.9l-3.2 1.8v16.5c0 .9-.2 1.5-.8 1.9-1.3 1.1-6.2 4.6-6.2 4.6l8.6-3.4c1.9-1 1.6-2.5 1.6-3.6z"/><path class="st0" d="M41.5 35.2V16.4l-3.2 1.8v17.5c0 1.2-.4 1.8-2.2 2.3-.7.1-11.2 3-11.2 3s14.4-2.2 14.8-2.2c2.3-.3 1.8-2.4 1.8-3.6zm-13.2-4V14.9l10-5.4L20.8 0 3.4 9.5l9.9 5.4v16.3c0 1.2-.1 2.4 1.5 4 0 0 5.5 5.7 6 6 .5-.2 6-6 6-6 1.7-1.6 1.5-2.7 1.5-4zM20.8 2.8l12.4 6.8-12.4 6.8L8.4 9.5l12.4-6.7zm0 32.2c-2.5 0-4.6-2-4.6-3.7V16.6l4.6 2.5 4.5-2.5v14.7c.1 1.7-2 3.7-4.5 3.7z"/></svg>